<svg width="1127" height="431" viewBox="0 0 1127 431" fill="none" xmlns="http://www.w3.org/2000/svg">
<path d="M373.111 26.4478C375.561 31.3467 376.611 36.9455 376.261 41.8445C376.261 47.0933 374.861 51.6424 373.111 55.8414C369.262 64.2397 364.363 71.2381 359.114 77.8867C348.267 90.8339 336.019 101.682 323.422 111.829C310.475 122.327 297.528 131.775 283.881 140.523C256.936 158.369 228.592 174.466 199.549 188.813C188.351 194.062 176.804 199.661 164.906 204.56C170.505 205.959 176.454 208.409 181.702 211.558C189.401 216.107 192.9 223.455 191.5 232.204C187.301 262.997 122.565 309.537 77.4249 321.784C67.9769 324.234 59.9286 325.284 52.9301 325.284C34.734 325.284 24.5862 318.285 18.9874 310.937C0.44139 287.492 24.2363 238.502 91.0719 161.169C138.662 106.231 191.15 56.5413 191.5 56.1914C194.65 53.0421 199.899 53.392 202.698 56.5413C205.497 59.3407 205.497 64.5896 202.348 67.389C201.998 68.0888 149.859 117.078 102.969 171.317C18.2876 269.296 26.6858 295.54 31.2348 301.139C40.3328 312.686 59.2288 310.587 73.5757 306.738C118.716 294.49 173.304 250.75 176.104 230.104C176.454 227.305 175.754 226.255 173.654 224.855C158.258 215.407 138.662 216.457 125.365 218.906C119.766 220.656 113.817 222.056 108.218 223.455C107.868 223.455 107.868 223.455 107.868 223.455C107.868 223.455 107.518 223.455 107.168 223.455C106.819 223.455 106.469 223.455 106.119 223.455C102.619 223.106 99.4701 221.006 98.7703 217.157C98.0704 214.008 99.4701 210.858 102.27 209.109C102.27 209.109 102.27 209.109 102.619 209.109C102.969 208.759 103.319 208.409 103.669 208.409C104.369 208.059 112.067 205.259 122.915 203.16C131.663 200.71 140.761 197.561 149.509 194.062C164.206 188.463 178.553 181.814 192.9 175.166C221.594 161.169 249.238 145.422 275.832 128.276C289.129 119.528 302.077 110.43 314.324 100.632C326.571 90.8339 338.119 80.3362 347.917 68.7887C352.816 62.84 357.365 56.5413 359.814 50.2427C362.614 43.944 363.314 37.9953 360.864 33.4462C358.065 28.5473 352.116 24.6981 345.467 22.2487C338.819 19.7992 331.12 18.0496 323.772 16.6499C308.725 14.5503 292.979 14.2004 277.232 15.2502C261.485 16.2999 246.089 18.3995 230.342 21.1989C199.199 26.7977 168.755 35.5458 139.012 46.7434C124.315 52.3422 109.968 58.6408 95.9709 65.9893C81.9739 72.9878 68.3268 81.036 56.4294 90.8339C50.4807 95.7329 44.8819 100.982 40.6828 106.93C36.4837 112.529 33.6843 119.178 34.0342 125.127C34.3841 130.725 38.2333 136.324 43.8321 140.873C49.081 145.422 55.7295 148.921 63.0779 151.721C65.8773 153.121 67.627 156.62 66.2273 159.769C64.8276 162.918 61.3283 164.318 58.179 162.918C50.4807 159.769 42.7823 155.92 35.7838 150.321C32.6345 147.522 29.1352 144.023 26.6858 139.823C23.8864 135.974 22.1367 131.075 21.7868 125.826C21.4369 120.927 22.4867 115.679 24.2363 111.48C25.9859 106.93 28.0855 103.081 30.8849 99.5821C35.7838 92.2336 42.0825 86.6348 48.3811 81.036C61.3283 70.5383 75.6752 62.1401 90.0222 54.4417C104.369 47.0933 119.416 40.4448 134.463 34.496C164.906 22.9485 196.049 13.8505 227.893 7.90174C243.989 5.10234 260.086 2.65285 276.532 1.60309C292.629 0.55331 309.075 0.903231 325.872 3.00279C333.92 4.40248 342.318 6.15212 350.716 9.30142C354.565 10.7011 358.764 12.8007 362.614 15.6001C366.463 18.0496 370.312 21.8987 373.111 26.4478ZM424.107 194.412C426.207 196.861 425.857 200.71 423.408 202.81C414.66 210.158 405.911 217.507 396.813 224.155C387.365 230.804 377.917 237.103 367.42 242.351C361.821 244.801 356.222 247.25 349.573 248.3C346.074 248.65 342.575 249 338.376 247.95C334.527 247.25 330.328 244.801 327.528 241.652C324.729 238.152 323.329 234.653 322.279 231.154C321.579 229.054 321.579 226.955 321.23 225.205C316.681 229.754 311.782 234.303 306.183 238.852C300.934 243.401 293.935 247.95 286.237 250.4C285.537 250.75 285.187 250.75 284.487 251.1C283.788 251.1 283.088 251.449 282.038 251.449C280.288 251.799 277.489 251.449 274.69 249.7C271.89 247.95 270.49 245.501 270.141 243.751C269.441 241.652 269.441 240.252 269.441 238.852C269.441 233.603 270.49 229.754 271.54 226.255C273.99 218.906 277.489 212.608 281.338 206.309C285.187 200.011 289.386 194.062 294.635 188.813C299.884 183.214 305.833 178.315 313.881 175.166C318.08 173.416 322.979 172.716 327.878 173.416C332.777 174.466 337.326 176.566 340.825 179.365C344.325 182.164 344.675 187.063 341.875 190.563C339.076 193.712 334.177 194.412 331.027 191.612C327.178 188.813 324.029 188.113 319.48 189.863C314.931 191.262 310.032 195.112 305.833 199.661C297.435 208.409 290.436 219.956 286.587 231.154C286.237 232.204 285.887 232.903 285.537 233.953C289.386 232.204 292.886 229.754 296.385 226.955C306.183 218.557 315.631 208.759 325.079 198.961C328.228 195.811 333.127 195.811 336.276 198.961C338.376 201.06 338.726 203.86 338.376 206.309C336.976 210.858 336.276 216.457 336.276 221.006C336.276 225.555 337.326 230.104 338.726 231.854C339.426 232.903 340.475 233.603 341.875 233.953C343.275 234.303 345.374 234.303 347.474 233.953C352.023 233.603 356.572 231.854 361.471 229.754C370.919 225.555 380.017 219.606 389.115 213.308C398.213 207.009 406.611 200.36 415.359 193.362C418.159 191.262 422.008 191.612 424.107 194.412ZM495.64 187.763C495.29 188.463 494.94 189.513 494.24 190.213C492.49 192.312 489.691 195.461 485.842 199.311C473.245 214.357 460.647 229.404 448.4 244.801C433.003 263.697 417.607 282.943 402.91 302.189C387.863 321.784 373.516 341.38 359.869 361.326C353.22 371.474 346.572 381.622 340.623 392.119C337.824 397.368 335.024 402.617 332.925 407.866C331.875 410.315 331.175 413.115 330.475 415.214V416.964C330.475 417.314 330.475 418.014 330.475 418.364C330.475 419.064 330.475 419.413 330.475 419.064C332.575 421.863 332.225 426.062 329.425 428.162C326.276 430.261 322.427 429.911 320.327 427.112C318.228 424.312 317.528 421.513 317.528 419.064C317.178 418.014 317.528 416.964 317.528 415.914L317.878 412.765C318.578 409.266 319.628 406.116 320.677 402.967C323.127 397.018 326.276 391.07 329.076 385.471C335.024 374.623 341.673 364.125 348.671 353.628C362.318 332.982 376.665 313.386 391.362 293.44C403.61 277.344 416.207 260.897 429.154 245.151C423.205 247.6 417.607 249 412.708 249C411.658 249 410.608 249 409.558 249C402.56 247.95 397.661 244.101 395.561 237.802C389.962 220.306 413.407 188.113 423.905 177.615C427.054 174.816 431.953 174.816 435.103 177.965C438.252 181.115 437.902 186.014 434.753 188.813C421.106 202.11 407.809 228.354 410.608 233.253C410.608 233.253 410.958 233.253 411.658 233.253C424.955 235.353 455.048 209.458 475.694 187.413C478.144 184.264 480.593 181.115 483.392 178.315C486.192 174.816 491.091 174.466 494.24 177.265C497.389 179.715 498.089 184.264 495.64 187.763ZM633.734 203.16C618.688 209.109 602.241 211.558 585.795 209.458C577.746 208.059 569.698 205.959 562 201.41L560.6 200.71C559.2 206.309 557.451 211.908 555.001 217.507C552.202 223.455 549.053 229.754 544.504 235.353C539.954 240.602 534.006 246.201 525.957 248.65C523.858 249 522.108 249.7 519.659 249.7C517.559 250.05 515.11 250.05 512.31 249.35C509.511 248.3 506.012 246.551 504.262 243.401C502.163 240.602 501.813 237.452 501.813 235.003C501.463 230.104 502.862 226.255 504.262 222.756C505.312 219.256 507.062 216.107 508.811 213.308C516.16 201.76 525.258 191.962 534.706 183.564C537.855 181.115 541.704 181.115 544.853 183.214C544.853 182.864 544.504 182.864 544.504 182.514C544.504 182.164 544.504 181.115 544.504 180.415C544.504 179.715 544.504 179.365 544.504 178.665C544.504 178.315 544.853 177.615 544.853 176.915C545.203 175.866 545.903 174.816 546.953 173.766C547.653 173.066 548.003 172.716 548.703 172.366C549.053 172.017 549.053 172.017 549.402 171.667C549.752 171.667 550.102 171.667 550.802 171.317C552.202 170.617 553.951 170.617 555.001 171.317H555.351C558.151 172.017 559.55 173.766 560.6 174.816C561.3 176.216 561.65 177.265 562 177.965C562.7 179.715 562.7 180.765 562.7 182.164C562.7 182.514 562.7 182.864 562.7 183.214C563.749 183.914 564.799 184.964 566.199 186.014L567.599 187.413L569.698 188.813C574.947 191.962 581.246 194.062 587.894 195.112C601.541 197.561 615.888 195.811 628.835 190.912C632.335 189.863 636.184 191.612 637.234 194.762C638.633 197.911 636.884 201.76 633.734 203.16ZM540.654 211.208C543.104 205.959 544.853 200.36 545.903 194.762C545.903 194.762 545.903 194.412 546.253 194.412C545.903 194.762 545.553 195.112 545.203 195.112V195.461C536.455 203.16 528.057 211.908 522.108 221.356C520.709 223.805 519.659 226.255 518.609 228.354C517.909 230.804 517.209 232.903 517.209 234.303C518.259 234.303 520.009 233.953 521.408 233.603C525.258 232.554 529.107 229.404 532.256 225.205C535.755 221.356 538.555 216.457 540.654 211.208ZM763.146 192.662C765.946 190.563 769.795 191.262 771.895 194.412C773.994 197.211 773.294 201.06 770.495 203.16C758.947 210.858 747.75 218.906 736.552 226.955C730.603 230.804 725.005 234.653 718.706 238.502C712.757 242.351 706.459 245.851 698.76 248.3C694.911 249.35 690.362 250.4 685.463 249.7C684.413 249.35 683.364 249.35 681.964 248.65C680.564 248.3 679.164 247.6 677.765 246.551C674.965 244.801 673.216 241.652 672.516 239.202C670.766 233.953 671.116 229.754 671.466 225.905C671.816 222.056 672.516 218.557 673.566 215.057L676.015 204.909C676.365 202.11 677.065 199.661 677.415 197.211C676.365 197.561 675.315 198.261 674.265 198.961C669.017 202.11 663.418 206.309 658.169 210.508C652.92 214.707 648.021 219.256 642.772 223.805C637.523 228.354 632.275 232.903 626.676 237.452C624.226 239.552 621.427 241.652 618.627 244.101C616.878 245.151 615.478 246.201 614.078 247.25C612.329 248.3 610.579 249.35 608.13 250.4C607.78 250.75 607.08 251.1 606.03 251.1C605.68 251.449 605.33 251.449 604.63 251.449C604.63 251.799 603.931 251.799 603.581 251.799C602.881 251.799 602.531 251.799 601.831 251.799C601.131 251.449 600.781 251.449 600.431 251.449L599.731 251.1C599.731 251.1 599.382 250.75 599.032 250.75C597.982 250.05 596.932 249.35 596.232 248.3C595.882 247.95 595.532 247.25 595.182 246.9C595.182 246.201 595.182 245.851 594.833 245.501C594.833 244.801 594.483 243.751 594.833 243.401C594.483 243.051 594.833 242.351 594.833 242.002V241.302C595.182 240.602 595.182 240.252 595.182 239.552C596.232 236.753 597.282 235.353 598.332 233.603C600.431 230.104 602.531 227.305 604.63 224.505C608.83 218.557 613.029 213.308 617.228 207.709C626.326 196.861 635.074 186.363 644.172 175.866C646.971 172.716 651.87 172.366 655.37 175.166C658.519 177.965 658.869 182.864 656.069 186.014C648.371 194.762 640.673 203.86 633.324 212.608C638.573 208.059 643.822 203.86 649.421 199.311C654.67 195.112 660.268 190.563 666.917 186.713C668.667 185.664 670.416 184.964 672.166 183.914C674.265 183.214 676.365 182.164 679.514 181.814C680.914 181.814 683.364 181.814 685.813 183.214C687.213 183.564 688.262 184.614 688.962 185.664C690.012 186.713 690.362 187.763 690.712 188.813C692.112 192.662 691.762 194.762 691.412 196.861C691.062 201.06 690.362 204.56 689.312 208.059L686.863 218.207C686.163 221.356 685.463 224.505 685.113 227.655C684.763 230.454 684.763 233.253 685.463 234.653C685.463 235.703 685.813 235.703 685.813 235.703C685.813 235.703 686.513 236.053 687.563 236.403C689.662 236.403 692.112 236.053 694.911 235.353C700.51 233.603 706.109 230.454 712.057 227.305C717.656 223.805 723.255 219.956 729.204 216.107C740.401 208.409 751.599 200.71 763.146 192.662ZM876.774 195.112C878.523 197.911 877.473 201.76 874.674 203.16C854.028 215.057 833.383 226.605 812.037 237.103C801.19 242.002 789.992 246.9 777.395 249.7C774.246 250.05 770.746 250.75 767.597 250.75H765.148C764.448 250.75 763.398 250.75 762.348 250.75C760.599 250.75 758.499 250.4 756.749 249.7C752.55 248.65 748.351 245.851 745.902 242.002C743.452 237.802 742.402 233.603 742.752 229.754C742.752 222.056 745.552 215.057 749.751 209.458C753.25 204.21 757.099 199.311 761.298 194.762C765.497 190.213 770.396 186.014 775.995 182.164C781.594 178.665 787.893 175.866 794.541 174.466C796.291 174.116 798.04 173.766 799.79 173.416C802.939 173.416 806.439 174.116 808.888 176.216C811.688 177.965 813.437 180.765 814.137 183.914C814.487 185.314 814.487 186.713 814.837 188.113C814.487 189.513 814.487 190.912 814.137 192.312C813.437 194.412 812.387 196.861 810.988 198.261C809.588 200.36 808.188 201.41 806.789 202.81C803.989 205.259 801.19 207.359 798.39 208.759L795.941 210.158L793.841 211.208L789.292 212.958C786.493 214.008 783.344 215.057 780.194 216.107C777.395 216.807 774.246 217.857 771.446 218.207L762.348 220.306C761.298 220.306 760.249 220.306 759.199 220.306C758.849 221.356 758.149 222.406 757.799 223.455C756.749 225.905 756.399 228.005 756.399 229.754C756.399 231.854 756.749 233.603 757.449 234.653C758.149 235.703 758.849 236.403 760.599 236.753C763.748 237.802 769.697 237.452 774.945 236.403C785.443 234.303 795.941 230.104 806.439 225.205C827.434 215.407 848.08 204.21 868.725 193.012V192.662C871.525 191.262 875.024 192.312 876.774 195.112ZM797.341 188.813C789.292 190.213 781.594 195.112 774.945 201.41C775.295 201.41 775.645 201.41 775.995 201.06C778.795 200.36 781.244 199.661 784.043 198.611L787.543 197.211L789.292 196.511L791.042 195.461C793.142 194.412 795.241 193.012 796.991 191.612C798.04 190.563 799.09 189.163 799.44 188.463C798.74 188.463 798.04 188.463 797.341 188.813ZM982.041 194.762C983.441 197.911 982.391 201.41 979.241 203.16C959.996 213.658 940.75 224.505 921.854 235.353C912.406 240.952 902.958 246.551 893.51 252.149C893.51 252.499 893.51 252.499 893.51 252.499C892.81 255.998 891.41 259.498 888.961 262.297C886.161 265.446 882.662 267.896 878.813 269.296C876.713 269.646 874.614 269.995 872.514 269.995C871.815 269.995 871.115 269.995 870.765 269.995L869.715 269.646H869.365H869.015H868.315C867.965 269.296 867.615 269.296 867.266 268.946C866.566 268.946 865.866 268.246 865.516 267.896L865.166 267.546C864.816 267.546 864.816 267.196 864.466 267.196C864.116 266.846 864.116 266.146 863.766 265.796C863.066 265.097 863.066 264.047 862.716 262.997C862.716 261.947 862.716 261.597 862.716 260.897C862.716 260.198 863.066 259.498 863.066 259.148C863.416 258.448 863.766 257.748 864.116 257.398C865.166 255.998 865.866 255.299 866.566 254.599C867.266 253.899 867.615 253.199 868.315 252.849C869.715 251.799 870.765 250.75 872.164 250.05C874.264 248.3 876.713 246.9 878.813 245.151C878.113 243.401 877.063 240.952 875.664 238.852C874.964 237.802 874.264 237.103 873.564 236.053L871.115 232.903C869.015 230.804 867.266 228.354 865.516 225.555C863.766 222.756 862.367 219.606 861.317 216.107C860.267 212.608 859.917 208.759 860.267 204.909C860.967 201.06 862.367 197.211 864.466 194.062C866.566 190.912 869.015 188.463 871.815 186.363C877.063 182.164 882.662 179.365 888.261 177.265C894.21 175.166 899.809 173.766 905.757 173.066C908.907 172.366 912.056 172.366 915.205 172.017C916.955 172.017 918.355 172.017 920.454 172.366C921.504 172.716 922.554 172.716 924.303 173.416C925.003 173.766 926.053 174.116 927.103 175.166C927.803 175.516 928.852 176.566 929.552 177.615C930.252 178.665 930.602 180.415 930.602 182.164C930.602 186.363 927.103 189.863 922.904 189.863C920.804 189.863 919.054 189.163 917.655 187.763C916.955 187.763 916.255 187.763 915.205 187.763C913.106 187.763 910.656 187.763 908.207 188.113C903.308 188.813 898.059 190.213 893.51 191.612C888.961 193.362 884.412 195.461 881.263 198.261C877.763 201.06 875.664 203.86 874.964 207.009C874.614 210.158 875.664 214.008 878.113 217.857C879.163 219.956 880.563 221.706 882.312 223.455L885.112 226.955C885.812 228.354 886.861 229.404 887.911 230.804C888.961 232.903 890.361 235.003 891.41 237.452C899.109 232.903 907.157 228.354 915.205 223.805C934.451 212.958 954.047 202.46 973.293 191.962C976.442 190.563 980.291 191.612 982.041 194.762ZM1124.38 126.176C1122.98 128.976 1119.83 130.026 1117.04 128.976L1114.59 128.276C1114.24 128.276 1113.89 128.276 1113.89 127.926L1112.14 127.576C1111.09 127.226 1110.04 126.876 1108.64 126.876C1105.84 126.526 1103.04 126.176 1100.24 126.176C1094.64 126.176 1088.69 126.176 1082.74 126.526C1070.85 127.226 1058.6 128.626 1046.7 130.026H1046.35C1042.5 135.274 1038.65 140.523 1034.8 145.772C1032.35 148.921 1030.25 151.721 1028.15 154.87C1027.1 156.27 1026.05 158.02 1025.36 159.419C1025.01 159.769 1024.66 160.469 1024.66 160.819C1024.66 161.169 1024.31 161.869 1024.31 162.219C1023.26 166.418 1019.06 169.217 1014.86 168.167C1013.46 167.817 1012.06 167.118 1011.01 166.068C1010.66 165.718 1010.31 165.368 1010.31 165.018C1002.26 174.816 994.562 184.964 987.563 195.112C978.815 207.709 970.767 220.306 964.818 233.603C963.418 237.103 962.369 240.252 961.319 243.401C960.619 246.9 960.269 250.05 960.269 252.499C960.619 254.949 961.319 255.998 962.718 257.048C963.418 257.398 964.468 258.098 965.868 258.098C966.218 258.448 966.918 258.448 967.617 258.448C968.317 258.798 968.667 258.798 969.367 258.448C971.817 258.448 975.316 257.398 978.815 256.348C981.964 254.949 985.464 253.549 988.613 252.149C995.261 249 1001.91 245.151 1008.56 241.652C1034.8 226.605 1060 209.458 1085.19 191.612C1087.99 189.863 1091.84 190.563 1093.94 193.362C1095.69 196.161 1094.99 200.011 1092.19 201.76C1067.35 219.956 1042.15 237.452 1015.21 253.199C1008.56 257.048 1001.56 260.897 994.562 264.047C990.712 265.796 987.213 267.546 983.364 268.946C979.515 270.345 975.666 271.745 970.417 272.095C969.367 272.445 967.617 272.445 966.218 272.095C965.168 272.095 963.768 271.745 962.718 271.745C960.269 271.045 957.47 269.995 955.02 268.596C952.571 266.846 950.471 264.397 949.071 261.947C947.672 259.148 946.972 256.348 946.622 253.899C946.272 248.65 946.972 244.101 948.022 239.902C949.071 235.703 950.471 231.854 951.871 228.005C958.519 213.308 966.918 200.011 975.666 187.063C984.414 174.116 993.512 161.869 1003.31 149.621C1007.51 144.722 1011.71 139.473 1015.91 134.575C1014.16 134.575 1012.41 134.924 1010.66 135.274C998.761 137.024 986.863 139.124 974.966 141.573C970.767 142.273 966.568 139.473 965.868 135.274C965.168 131.075 967.967 126.876 972.166 126.176C984.414 124.077 996.311 121.977 1008.56 120.228C1015.91 119.178 1023.26 118.128 1030.6 117.428C1031.3 116.378 1032.35 115.329 1033.05 114.279C1043.55 102.731 1054.05 91.5338 1065.6 80.6861C1068.75 77.5368 1073.64 77.8867 1076.44 81.036C1079.24 83.8354 1079.24 88.3845 1076.79 91.1839C1070.85 98.8822 1064.9 106.581 1058.6 114.279C1066.3 113.579 1073.99 112.879 1082.04 112.529C1088.34 112.179 1094.29 112.179 1100.94 112.529C1104.09 112.529 1107.24 112.879 1110.74 113.229C1112.49 113.579 1114.24 113.929 1115.99 114.629L1118.78 115.329C1119.83 116.029 1120.88 116.728 1121.93 117.078C1125.08 118.828 1126.48 123.027 1124.38 126.176ZM1020.81 153.82C1020.81 153.82 1020.46 153.471 1020.11 153.471C1020.46 153.471 1020.81 153.82 1020.81 153.82Z" fill="black"/>
</svg>
