<svg width="956" height="264" viewBox="0 0 956 264" fill="none" xmlns="http://www.w3.org/2000/svg">
<path d="M110.937 253.051C104.871 255.151 97.8729 256.667 89.9413 257.6C82.2429 258.533 71.5119 259 57.7482 259H0.0105537C3.04324 258.3 6.3092 255.734 9.80845 251.302C13.3077 246.636 15.0573 237.771 15.0573 224.707V51.4945C15.0573 39.3638 13.4243 31.0822 10.1584 26.6499C6.89241 21.9842 3.62644 19.1848 0.360479 18.2517H57.7482C72.6783 18.2517 83.9925 18.9515 91.6909 20.3512C99.6225 21.5176 106.504 23.3839 112.336 25.95C122.601 30.849 130.533 37.7308 136.131 46.5956C141.73 55.4603 144.53 65.025 144.53 75.2894C144.53 90.9194 139.747 104.45 130.183 115.881C120.851 127.078 108.487 134.31 93.0906 137.576C103.588 138.742 113.503 141.775 122.834 146.674C132.399 151.573 140.097 158.222 145.929 166.62C151.995 175.018 155.027 184.583 155.027 195.314C155.027 210.244 151.061 222.491 143.13 232.056C135.198 241.387 124.467 248.386 110.937 253.051ZM101.139 42.7464C96.4732 39.2472 91.4576 36.681 86.0921 35.0481C80.7266 33.1818 73.4948 32.2487 64.3967 32.2487H40.2519V131.627H68.5958C76.994 131.627 83.9925 130.344 89.5913 127.778C95.1901 125.212 100.089 121.829 104.288 117.63C108.721 113.198 112.22 107.832 114.786 101.534C117.352 95.2351 118.635 88.8199 118.635 82.2879C118.635 74.3563 117.119 66.8912 114.086 59.8927C111.287 52.8942 106.971 47.1788 101.139 42.7464ZM108.487 155.772C104.055 152.273 98.5727 149.707 92.0408 148.074C85.5089 146.441 76.6441 145.624 65.4465 145.624H40.2519V245.003H73.4948C90.2912 245.003 103.355 241.037 112.686 233.106C122.251 225.174 127.033 212.577 127.033 195.314C127.033 179.217 120.851 166.037 108.487 155.772ZM243.137 263.199C230.54 263.199 219.692 260.166 210.594 254.101C201.496 247.802 194.498 239.754 189.599 229.956C184.933 219.925 182.6 209.311 182.6 198.113C182.6 183.65 185.4 171.169 190.998 160.671C196.831 150.173 204.296 142.242 213.394 136.876C222.492 131.511 231.94 128.828 241.738 128.828C255.735 128.828 267.749 133.96 277.78 144.225C288.044 154.256 293.643 168.253 294.576 186.216H203.596C203.596 197.413 205.695 207.328 209.894 215.959C214.094 224.357 219.692 230.889 226.691 235.555C233.923 239.987 241.738 242.204 250.136 242.204C272.064 242.204 286.878 235.205 294.576 221.208C292.477 233.805 286.761 243.953 277.43 251.652C268.099 259.35 256.668 263.199 243.137 263.199ZM239.288 140.375C230.19 140.375 222.375 143.641 215.843 150.173C209.311 156.472 205.345 164.754 203.946 175.018H267.632C267.632 164.287 264.716 155.889 258.884 149.823C253.285 143.525 246.753 140.375 239.288 140.375ZM327.956 43.7962C327.956 33.9983 326.323 27.3497 323.057 23.8505C320.024 20.1179 316.525 18.2517 312.559 18.2517H310.46L350.351 0.0555734V224.008C350.351 234.272 351.401 241.97 353.5 247.103C355.6 252.235 357.933 255.734 360.499 257.6C363.065 259.233 364.348 259.7 364.348 259H313.959C313.959 259.7 315.242 259.233 317.808 257.6C320.374 255.734 322.707 252.235 324.806 247.103C326.906 241.737 327.956 234.039 327.956 224.008V43.7962ZM397.462 43.7962C397.462 33.9983 395.829 27.3497 392.563 23.8505C389.531 20.1179 386.031 18.2517 382.066 18.2517H379.966L419.858 0.0555734V224.008C419.858 234.272 420.907 241.97 423.007 247.103C425.106 252.235 427.439 255.734 430.005 257.6C432.571 259.233 433.855 259.7 433.855 259H383.465C383.465 259.7 384.748 259.233 387.315 257.6C389.881 255.734 392.213 252.235 394.313 247.103C396.413 241.737 397.462 234.039 397.462 224.008V43.7962ZM513.509 263.199C500.912 263.199 490.064 260.166 480.966 254.101C471.868 247.802 464.869 239.754 459.97 229.956C455.305 219.925 452.972 209.311 452.972 198.113C452.972 183.65 455.771 171.169 461.37 160.671C467.202 150.173 474.667 142.242 483.765 136.876C492.863 131.511 502.311 128.828 512.109 128.828C526.106 128.828 538.12 133.96 548.152 144.225C558.416 154.256 564.015 168.253 564.948 186.216H473.967C473.967 197.413 476.067 207.328 480.266 215.959C484.465 224.357 490.064 230.889 497.063 235.555C504.294 239.987 512.109 242.204 520.507 242.204C542.436 242.204 557.25 235.205 564.948 221.208C562.848 233.805 557.133 243.953 547.802 251.652C538.47 259.35 527.039 263.199 513.509 263.199ZM509.66 140.375C500.562 140.375 492.747 143.641 486.215 150.173C479.683 156.472 475.717 164.754 474.317 175.018H538.004C538.004 164.287 535.088 155.889 529.256 149.823C523.657 143.525 517.125 140.375 509.66 140.375ZM687.558 30.499C683.359 26.2999 678.227 23.034 672.162 20.7011C666.33 18.135 660.381 16.852 654.315 16.852C642.651 16.852 634.136 21.0511 628.771 29.4493C623.405 37.6142 620.723 48.2286 620.723 61.2924V131.627H657.115V145.624H620.723V224.008C620.723 234.039 621.772 241.737 623.872 247.103C625.972 252.235 628.304 255.734 630.871 257.6C633.437 259.233 634.72 259.7 634.72 259H583.981C583.981 259.7 585.264 259.233 587.83 257.6C590.629 255.734 593.079 252.235 595.178 247.103C597.278 241.737 598.327 234.039 598.327 224.008V145.624H578.732V131.627H598.327V82.9878C598.327 66.6579 601.01 52.311 606.376 39.947C611.975 27.3497 619.673 17.5518 629.471 10.5533C639.502 3.55482 650.933 0.0555734 663.763 0.0555734C673.795 0.0555734 681.726 1.10535 687.558 3.2049V30.499ZM770.441 263.199C762.976 262.966 756.678 260.983 751.545 257.25C746.413 253.518 743.497 249.202 742.797 244.303C738.598 250.369 732.999 255.034 726.001 258.3C719.236 261.566 712.47 263.199 705.705 263.199C694.974 263.199 685.993 260.166 678.761 254.101C671.529 247.802 667.913 239.637 667.913 229.606C667.913 203.712 692.175 190.765 740.698 190.765V186.915C740.698 174.085 738.831 164.637 735.099 158.572C729.967 149.94 721.568 145.624 709.904 145.624C700.806 145.624 693.225 148.307 687.159 153.673C681.327 159.038 678.411 166.037 678.411 174.668C677.011 172.335 675.845 170.236 674.912 168.369C674.212 166.503 673.862 163.937 673.862 160.671C673.862 152.273 677.828 144.924 685.76 138.626C693.691 132.094 704.072 128.828 716.903 128.828C735.099 128.828 748.046 134.893 755.744 147.024C758.311 150.757 760.177 155.422 761.343 161.021C762.51 166.62 763.093 173.968 763.093 183.066V224.707C763.093 231.939 765.076 237.538 769.042 241.504C773.241 245.47 779.073 247.452 786.538 247.452H791.087L770.441 263.199ZM740.698 201.262C722.035 201.262 709.438 203.595 702.906 208.261C696.374 212.927 693.108 219.225 693.108 227.157C693.108 233.689 694.858 238.821 698.357 242.554C701.856 246.286 706.522 248.152 712.354 248.152C716.786 248.152 720.985 247.103 724.951 245.003C728.917 242.903 732.3 239.987 735.099 236.255C738.831 231.356 740.698 224.707 740.698 216.309V201.262ZM810.469 171.169C810.469 161.371 808.836 154.722 805.571 151.223C802.538 147.491 799.039 145.624 795.073 145.624L832.865 128.828V224.008C832.865 234.272 833.914 241.97 836.014 247.103C838.114 252.235 840.446 255.734 843.012 257.6C845.579 259.233 846.862 259.7 846.862 259H796.472C796.472 259.7 797.756 259.233 800.322 257.6C802.888 255.734 805.221 252.235 807.32 247.103C809.42 241.97 810.469 234.272 810.469 224.008V171.169ZM821.317 86.487C816.185 86.487 812.102 84.854 809.07 81.5881C806.27 78.0888 804.871 74.123 804.871 69.6906C804.871 65.2582 806.27 61.4091 809.07 58.1431C812.102 54.6438 816.185 52.8942 821.317 52.8942C826.449 52.8942 830.415 54.6438 833.215 58.1431C836.247 61.4091 837.764 65.2582 837.764 69.6906C837.764 74.123 836.247 78.0888 833.215 81.5881C830.415 84.854 826.449 86.487 821.317 86.487ZM902.371 160.671C905.87 153.206 911.586 146.091 919.517 139.326C927.682 132.327 935.847 128.828 944.012 128.828C949.144 128.828 952.994 129.528 955.56 130.927V159.621C950.427 153.323 943.196 150.173 933.864 150.173C924.066 150.173 916.368 154.489 910.769 163.121C905.171 171.519 902.371 182.366 902.371 195.664V224.008C902.371 237.071 903.887 246.053 906.92 250.952C909.953 255.851 912.869 258.533 915.668 259H866.329C869.128 258.533 872.044 255.967 875.077 251.302C878.343 246.403 879.976 237.305 879.976 224.008V171.169C879.976 161.371 878.343 154.722 875.077 151.223C872.044 147.491 868.545 145.624 864.579 145.624L902.371 128.828V160.671Z" fill="black"/>
</svg>
