<svg width="1085" height="199" viewBox="0 0 1085 199" fill="none" xmlns="http://www.w3.org/2000/svg">
<path d="M0.219298 0.390381H26.7105V80.3911H127.403V0.390381H153.894V194H127.403V103.456H26.7105V194H0.219298V0.390381ZM250.238 49.6824C260.255 49.6824 269.964 52.0548 279.365 56.7994C288.767 61.4563 295.928 67.5189 300.848 74.9874C305.593 82.1044 308.756 90.4077 310.337 99.897C311.743 106.399 312.446 116.767 312.446 131.001H208.986C209.425 145.323 212.808 156.833 219.134 165.532C225.46 174.143 235.257 178.448 248.525 178.448C260.914 178.448 270.798 174.362 278.179 166.191C282.396 161.446 285.384 155.955 287.141 149.716H310.469C309.854 154.9 307.789 160.699 304.275 167.113C300.848 173.44 296.982 178.624 292.677 182.665C285.472 189.695 276.553 194.439 265.922 196.9C260.211 198.305 253.753 199.008 246.548 199.008C228.975 199.008 214.082 192.638 201.869 179.898C189.655 167.07 183.549 149.145 183.549 126.125C183.549 103.456 189.699 85.0479 202 70.9017C214.301 56.7555 230.381 49.6824 250.238 49.6824ZM288.064 112.154C287.097 101.874 284.857 93.6586 281.342 87.5081C274.84 76.0857 263.989 70.3745 248.788 70.3745C237.893 70.3745 228.755 74.3284 221.374 82.2362C213.994 90.0562 210.084 100.029 209.645 112.154H288.064ZM342.364 0.390381H366.087V194H342.364V0.390381ZM413.403 52.8455L451.096 167.772L490.504 52.8455H516.468L463.222 194H437.917L385.857 52.8455H413.403ZM595.546 49.6824C605.562 49.6824 615.271 52.0548 624.673 56.7994C634.074 61.4563 641.235 67.5189 646.156 74.9874C650.9 82.1044 654.064 90.4077 655.645 99.897C657.051 106.399 657.754 116.767 657.754 131.001H554.293C554.733 145.323 558.115 156.833 564.442 165.532C570.768 174.143 580.565 178.448 593.832 178.448C606.221 178.448 616.106 174.362 623.487 166.191C627.704 161.446 630.692 155.955 632.449 149.716H655.777C655.162 154.9 653.097 160.699 649.583 167.113C646.156 173.44 642.29 178.624 637.984 182.665C630.779 189.695 621.861 194.439 611.23 196.9C605.518 198.305 599.06 199.008 591.855 199.008C574.283 199.008 559.39 192.638 547.176 179.898C534.963 167.07 528.857 149.145 528.857 126.125C528.857 103.456 535.007 85.0479 547.308 70.9017C559.609 56.7555 575.688 49.6824 595.546 49.6824ZM633.371 112.154C632.405 101.874 630.164 93.6586 626.65 87.5081C620.148 76.0857 609.297 70.3745 594.096 70.3745C583.201 70.3745 574.063 74.3284 566.682 82.2362C559.302 90.0562 555.392 100.029 554.952 112.154H633.371ZM691.758 13.4383H715.745V52.8455H738.282V72.2197H715.745V164.346C715.745 169.266 717.414 172.561 720.753 174.23C722.598 175.197 725.673 175.68 729.979 175.68C731.121 175.68 732.351 175.68 733.669 175.68C734.987 175.592 736.525 175.461 738.282 175.285V194C735.558 194.791 732.702 195.362 729.715 195.713C726.816 196.065 723.652 196.241 720.226 196.241C709.155 196.241 701.642 193.429 697.688 187.806C693.734 182.094 691.758 174.714 691.758 165.664V72.2197H672.647V52.8455H691.758V13.4383ZM762.137 53.5045H786.256V194H762.137V53.5045ZM762.137 0.390381H786.256V27.2769H762.137V0.390381ZM876.669 48.7598C892.572 48.7598 905.488 52.6259 915.417 60.358C925.433 68.09 931.452 81.4015 933.473 100.292H910.409C909.003 91.5938 905.796 84.3889 900.787 78.6777C895.779 72.8787 887.739 69.9791 876.669 69.9791C861.556 69.9791 850.748 77.3598 844.247 92.121C840.029 101.698 837.92 113.516 837.92 127.574C837.92 141.721 840.908 153.626 846.882 163.291C852.857 172.956 862.259 177.789 875.087 177.789C884.928 177.789 892.704 174.802 898.415 168.827C904.214 162.764 908.212 154.505 910.409 144.049H933.473C930.837 162.764 924.247 176.471 913.703 185.17C903.16 193.78 889.672 198.086 873.242 198.086C854.79 198.086 840.073 191.364 829.09 177.921C818.107 164.39 812.615 147.52 812.615 127.311C812.615 102.533 818.634 83.2467 830.671 69.4519C842.709 55.6572 858.041 48.7598 876.669 48.7598ZM975.384 156.438C975.384 163.291 977.889 168.695 982.897 172.649C987.905 176.603 993.836 178.58 1000.69 178.58C1009.04 178.58 1017.12 176.647 1024.94 172.781C1038.12 166.367 1044.71 155.867 1044.71 141.281V122.171C1041.81 124.016 1038.08 125.553 1033.51 126.784C1028.94 128.014 1024.46 128.892 1020.06 129.42L1005.7 131.265C997.087 132.407 990.629 134.208 986.324 136.668C979.031 140.798 975.384 147.388 975.384 156.438ZM1032.85 108.464C1038.3 107.761 1041.94 105.476 1043.79 101.61C1044.84 99.5016 1045.37 96.4703 1045.37 92.5164C1045.37 84.4329 1042.47 78.5899 1036.67 74.9874C1030.96 71.2971 1022.74 69.4519 1012.02 69.4519C999.635 69.4519 990.849 72.7908 985.665 79.4685C982.765 83.1588 980.876 88.6504 979.997 95.9431H957.855C958.295 78.5459 963.918 66.4646 974.725 59.699C985.621 52.8455 998.229 49.4188 1012.55 49.4188C1029.16 49.4188 1042.64 52.5819 1053.01 58.9082C1063.29 65.2344 1068.43 75.0753 1068.43 88.4307V169.749C1068.43 172.21 1068.92 174.187 1069.88 175.68C1070.94 177.174 1073.09 177.921 1076.34 177.921C1077.4 177.921 1078.58 177.877 1079.9 177.789C1081.22 177.613 1082.62 177.394 1084.12 177.13V194.659C1080.43 195.713 1077.61 196.372 1075.68 196.636C1073.75 196.9 1071.11 197.031 1067.77 197.031C1059.6 197.031 1053.67 194.132 1049.98 188.333C1048.05 185.257 1046.69 180.908 1045.9 175.285C1041.06 181.611 1034.12 187.103 1025.07 191.759C1016.02 196.416 1006.05 198.745 995.154 198.745C982.062 198.745 971.343 194.791 962.996 186.883C954.736 178.887 950.607 168.915 950.607 156.965C950.607 143.873 954.692 133.725 962.864 126.52C971.035 119.315 981.755 114.878 995.022 113.209L1032.85 108.464Z" fill="black"/>
</svg>
